<svg xmlns="http://www.w3.org/2000/svg" xmlns:xlink="http://www.w3.org/1999/xlink" xmlns:lucid="lucid" width="1470" height="1039"><g transform="translate(-90 -60)" lucid:page-tab-id="0_0"><path d="M0 0h1870.87v2581.67H0z" fill="#fff"/><path d="M1310 546c0-3.3 2.7-6 6-6h28c3.3 0 6 2.7 6 6v408c0 3.3-2.7 6-6 6h-28c-3.3 0-6-2.7-6-6zM980 386c0-3.3 2.7-6 6-6h28c3.3 0 6 2.7 6 6v368c0 3.3-2.7 6-6 6h-28c-3.3 0-6-2.7-6-6zM650 326c0-3.3 2.7-6 6-6h28c3.3 0 6 2.7 6 6v728c0 3.3-2.7 6-6 6h-28c-3.3 0-6-2.7-6-6z" stroke="#5e5e5e" stroke-width="3" fill="#fff"/><path d="M130 486c0-3.3 2.7-6 6-6h88c3.3 0 6 2.7 6 6v8c0 3.3-1.9 7.9-4.24 10.24l-1.52 1.52C221.9 508.1 217.3 510 214 510h-78c-3.3 0-6-2.7-6-6z" fill="#fff"/><path d="M230 480v20l-10 10h-90" stroke="#5e5e5e" stroke-width="3" fill="none"/><path d="M130 486c0-3.3 2.7-6 6-6h1378c3.3 0 6 2.7 6 6v348c0 3.3-2.7 6-6 6H136c-3.3 0-6-2.7-6-6zM130 660h20m15 0h20m15 0h20m15 0h20m15 0h20m15 0h20m15 0h20m15 0h20m15 0h20m15 0h20m15 0h20m15 0h20m15 0h20m15 0h20m15 0h20m15 0h20m15 0h20m15 0h20m15 0h20m15 0h20m15 0h20m15 0h20m15 0h20m15 0h20m15 0h20m15 0h20m15 0h20m15 0h20m15 0h20m15 0h20m15 0h20m15 0h20m15 0h20m15 0h20m15 0h20m15 0h20m15 0h20m15 0h20m15 0h20m15 0h20" stroke="#5e5e5e" stroke-width="3" fill="none"/><use xlink:href="#a" transform="matrix(1,0,0,1,138,480) translate(0 19.444444444444443)"/><use xlink:href="#b" transform="matrix(1,0,0,1,142,518) translate(0 19.444444444444443)"/><use xlink:href="#c" transform="matrix(1,0,0,1,142,518) translate(91.23456790123457 19.444444444444443)"/><use xlink:href="#d" transform="matrix(1,0,0,1,142,668) translate(0 19.444444444444443)"/><path d="M399.75 119.75c0 10.9-8.84 19.75-19.75 19.75-10.9 0-19.75-8.84-19.75-19.75 0-10.9 8.84-19.75 19.75-19.75 10.9 0 19.75 8.84 19.75 19.75z" stroke="#5e5e5e" stroke-width="3" fill="#fff"/><path d="M380 139.5v49.3c0 3.3 1.44 8.27 3.2 11.07L420 258m-40-63.2L340 258m0-98.75h80" stroke="#5e5e5e" stroke-width="3" fill="none"/><path d="M340 106c0-3.3 2.7-6 6-6h68c3.3 0 6 2.7 6 6v168c0 3.3-2.7 6-6 6h-68c-3.3 0-6-2.7-6-6z" fill="none"/><use xlink:href="#e" transform="matrix(1,0,0,1,260,258) translate(96.60493827160494 17.77777777777778)"/><path d="M590 166c0-3.3 2.7-6 6-6h148c3.3 0 6 2.7 6 6v108c0 3.3-2.7 6-6 6H596c-3.3 0-6-2.7-6-6z" stroke="#5e5e5e" stroke-width="3" fill="#fff"/><use xlink:href="#f" transform="matrix(1,0,0,1,595,165) translate(8.456790123456784 59.02777777777778)"/><use xlink:href="#g" transform="matrix(1,0,0,1,595,165) translate(71.29629629629628 59.02777777777778)"/><path d="M920 166c0-3.3 2.7-6 6-6h148c3.3 0 6 2.7 6 6v108c0 3.3-2.7 6-6 6H926c-3.3 0-6-2.7-6-6z" stroke="#5e5e5e" stroke-width="3" fill="#fff"/><use xlink:href="#h" transform="matrix(1,0,0,1,925,165) translate(7.283950617283949 59.02777777777778)"/><use xlink:href="#g" transform="matrix(1,0,0,1,925,165) translate(72.46913580246913 59.02777777777778)"/><path d="M1250 166c0-3.3 2.7-6 6-6h148c3.3 0 6 2.7 6 6v108c0 3.3-2.7 6-6 6h-148c-3.3 0-6-2.7-6-6z" stroke="#5e5e5e" stroke-width="3" fill="#fff"/><use xlink:href="#i" transform="matrix(1,0,0,1,1255,165) translate(20.185185185185176 45.27777777777778)"/><use xlink:href="#g" transform="matrix(1,0,0,1,1255,165) translate(39.87654320987654 71.94444444444446)"/><path d="M380 198.6v10m0 10v20.02m0 10v20m0 10v20.02m0 10v20m0 10v20.02m0 10v20m0 10v20.02m0 10v20m0 10v20.02m0 10v20m0 10v20.02m0 10v20m0 10.02v20m0 10v20m0 10.02v20m0 10v20m0 10.02v20m0 10v20m0 10.02v20m0 10v20.02m0 10v20m0 10v20.02m0 10v20m0 10v20.02m0 10v20m0 10v20.02m0 10v20m0 10v20.02m0 10v20m0 10v20.02m0 10v20m0 10v20.02m0 10v20m0 10v20.02m0 10v20m0 10V1289m0 10v20m0 10.02v10M380 1338.97v1.03M670 282.5v10.06m0 10.06v20.13m0 10.06v20.13m0 10.07v20.12m0 10.06v20.12m0 10.07v20.12m0 10.05v20.13m0 10.06v20.12m0 10.06v20.13m0 10.06v20.13m0 10.07v20.12m0 10.06v20.12m0 10.07v20.12m0 10.05v20.13m0 10.06v20.12m0 10.06v20.13m0 10.06v20.13m0 10.07v20.12m0 10.06v20.12m0 10.07v20.12m0 10.05v20.13m0 10.06v20.12m0 10.06v20.13m0 10.06v20.13m0 10.07v20.12m0 10.06v20.12m0 10.07v20.12m0 10.05v20.13m0 10.06v20.12m0 10.06v20.13m0 10.06v20.13m0 10.07v20.12m0 10.06v20.12m0 10.07v20.12m0 10.05v20.13m0 10.06V1339" stroke="#5e5e5e" stroke-width="2" fill="none"/><path d="M671 282.53h-2v-1.03h2" fill="#5e5e5e"/><path d="M670 1338.97v1.03M1000 282.5v10.06m0 10.06v20.13m0 10.06v20.13m0 10.07v20.12m0 10.06v20.12m0 10.07v20.12m0 10.05v20.13m0 10.06v20.12m0 10.06v20.13m0 10.06v20.13m0 10.07v20.12m0 10.06v20.12m0 10.07v20.12m0 10.05v20.13m0 10.06v20.12m0 10.06v20.13m0 10.06v20.13m0 10.07v20.12m0 10.06v20.12m0 10.07v20.12m0 10.05v20.13m0 10.06v20.12m0 10.06v20.13m0 10.06v20.13m0 10.07v20.12m0 10.06v20.12m0 10.07v20.12m0 10.05v20.13m0 10.06v20.12m0 10.06v20.13m0 10.06v20.13m0 10.07v20.12m0 10.06v20.12m0 10.07v20.12m0 10.05v20.13m0 10.06V1339" stroke="#5e5e5e" stroke-width="2" fill="none"/><path d="M1001 282.53h-2v-1.03h2" fill="#5e5e5e"/><path d="M1000 1338.97v1.03M1330 282.5v10.06m0 10.06v20.13m0 10.06v20.13m0 10.07v20.12m0 10.06v20.12m0 10.07v20.12m0 10.05v20.13m0 10.06v20.12m0 10.06v20.13m0 10.06v20.13m0 10.07v20.12m0 10.06v20.12m0 10.07v20.12m0 10.05v20.13m0 10.06v20.12m0 10.06v20.13m0 10.06v20.13m0 10.07v20.12m0 10.06v20.12m0 10.07v20.12m0 10.05v20.13m0 10.06v20.12m0 10.06v20.13m0 10.06v20.13m0 10.07v20.12m0 10.06v20.12m0 10.07v20.12m0 10.05v20.13m0 10.06v20.12m0 10.06v20.13m0 10.06v20.13m0 10.07v20.12m0 10.06v20.12m0 10.07v20.12m0 10.05v20.13m0 10.06V1339" stroke="#5e5e5e" stroke-width="2" fill="none"/><path d="M1331 282.53h-2v-1.03h2" fill="#5e5e5e"/><path d="M1330 1338.97v1.03" stroke="#5e5e5e" stroke-width="2" fill="none"/><path d="M454.92 361H381v-2h73.92M630 361h-56.42v-2H630" fill="#5e5e5e"/><path d="M381.03 361H380v-2h1.03M645.26 360L631 364.63v-9.27z" fill="#5e5e5e"/><path d="M648.5 360l-18.5 6v-12m2 9.26l10.03-3.26-10.03-3.26" fill="#5e5e5e"/><use xlink:href="#j" transform="matrix(1,0,0,1,454.9166666666667,347.999) translate(0 16)"/><use xlink:href="#k" transform="matrix(1,0,0,1,454.9166666666667,347.999) translate(67.66666666666667 16)"/><path d="M773.4 421h-80.9v-2h80.9m186.6 2h-63.4v-2H960" fill="#5e5e5e"/><path d="M692.53 421h-1.03v-2h1.03M975.26 420L961 424.64v-9.28z" fill="#5e5e5e"/><path d="M978.5 420l-18.5 6v-12m2 9.26l10.03-3.26-10.03-3.26" fill="#5e5e5e"/><use xlink:href="#l" transform="matrix(1,0,0,1,773.395061728395,409.33333333333337) translate(0 14.222222222222223)"/><use xlink:href="#m" transform="matrix(1,0,0,1,773.395061728395,409.33333333333337) translate(66.0246913580247 14.222222222222223)"/><path d="M977.5 541h-10.53v-2h10.53m-21.05 2H935.4v-2h21.05m-221.03 2h-21.05v-2h21.05m-31.58 2h-10.52v-2h10.52" fill="#5e5e5e"/><path d="M978.5 541h-1.03v-2h1.03M711.2 530.68L695.42 540l15.76 9.32-1.03 1.72L691.5 540l18.67-11.04" fill="#5e5e5e"/><use xlink:href="#n" transform="matrix(1,0,0,1,743.320987654321,529.3333333333333) translate(0 14.222222222222223)"/><use xlink:href="#o" transform="matrix(1,0,0,1,743.320987654321,529.3333333333333) translate(76.83950617283952 14.222222222222223)"/><path d="M1021.5 601h-329v-2h329m268.5 2h-49.74v-2H1290" fill="#5e5e5e"/><path d="M692.53 601h-1.03v-2h1.03M1305.26 600l-14.26 4.64v-9.28z" fill="#5e5e5e"/><path d="M1308.5 600l-18.5 6v-12m2 9.26l10.03-3.26-10.03-3.26" fill="#5e5e5e"/><use xlink:href="#p" transform="matrix(1,0,0,1,1021.4960718294053,589.3333333333336) translate(0 14.222222222222223)"/><use xlink:href="#q" transform="matrix(1,0,0,1,1021.4960718294053,589.3333333333336) translate(48.296296296296305 14.222222222222223)"/><use xlink:href="#r" transform="matrix(1,0,0,1,1021.4960718294053,589.3333333333336) translate(123.30864197530866 14.222222222222223)"/><path d="M977.5 721h-10.53v-2h10.53m-21.05 2H935.4v-2h21.05m-204.22 2h-6.3v-2h6.3m-16.8 2h-21.06v-2h21.05m-31.58 2h-10.52v-2h10.52m221.03 2h-7.1v-2h7.1" fill="#5e5e5e"/><path d="M978.5 721h-1.03v-2h1.03M711.2 710.68L695.42 720l15.76 9.32-1.03 1.72L691.5 720l18.67-11.04" fill="#5e5e5e"/><use xlink:href="#s" transform="matrix(1,0,0,1,752.2345679012345,709.3333333333334) translate(0 14.222222222222223)"/><use xlink:href="#t" transform="matrix(1,0,0,1,752.2345679012345,709.3333333333334) translate(99.45679012345681 14.222222222222223)"/><path d="M1029.92 781H692.5v-2h337.42m260.08 2h-58.16v-2H1290" fill="#5e5e5e"/><path d="M692.53 781h-1.03v-2h1.03M1305.26 780l-14.26 4.64v-9.28z" fill="#5e5e5e"/><path d="M1308.5 780l-18.5 6v-12m2 9.26l10.03-3.26-10.03-3.26" fill="#5e5e5e"/><g><use xlink:href="#p" transform="matrix(1,0,0,1,1029.915824915825,769.3333333333331) translate(0 14.222222222222223)"/><use xlink:href="#u" transform="matrix(1,0,0,1,1029.915824915825,769.3333333333331) translate(48.296296296296305 14.222222222222223)"/><use xlink:href="#r" transform="matrix(1,0,0,1,1029.915824915825,769.3333333333331) translate(106.46913580246915 14.222222222222223)"/></g><path d="M1307.5 921h-10.24v-2h10.24m-20.47 2h-20.48v-2h20.48m-30.7 2h-20.48v-2h20.47m-30.7 2h-20.48v-2h20.47m-30.7 2h-20.47v-2h20.47m-30.7 2h-20.48v-2h20.47m-30.72 2H1113v-2h20.48m-30.7 2h-20.48v-2h20.47m-30.7 2h-20.48v-2h20.46m-30.7 2h-20.48v-2h20.47m-30.7 2h-20.48v-2h20.48m-30.7 2h-20.5v-2h20.5m-30.72 2h-20.48v-2h20.48m-184.26 2H744.5v-2h20.47m-30.7 2h-20.48v-2h20.46m-30.7 2H693.3v-2h10.23m214.97 2h-13.65v-2h13.65" fill="#5e5e5e"/><path d="M1308.5 921h-1.03v-2h1.03M711.2 910.68L695.42 920l15.76 9.32-1.03 1.72L691.5 920l18.67-11.04" fill="#5e5e5e"/><g><use xlink:href="#v" transform="matrix(1,0,0,1,766.0592592592593,909.3333333333335) translate(0 14.222222222222223)"/><use xlink:href="#w" transform="matrix(1,0,0,1,766.0592592592593,909.3333333333335) translate(102.37037037037038 14.222222222222223)"/></g><path d="M647.5 1001h-11.1v-2h11.1m-22.2 2h-22.22v-2h22.2m-183.4 2H437v-2h4.88m-15.92 2H403.9v-2h22.06m-33.1 2h-11.04v-2h11.04m199.12 2h-5.36v-2h5.36" fill="#5e5e5e"/><path d="M648.5 1001h-1.03v-2h1.03M399.7 990.68l-15.77 9.32 15.76 9.32-1.03 1.72L380 1000l18.67-11.04" fill="#5e5e5e"/><g><use xlink:href="#x" transform="matrix(1,0,0,1,441.8796296296296,989.3323333333334) translate(0 14.222222222222223)"/><use xlink:href="#y" transform="matrix(1,0,0,1,441.8796296296296,989.3323333333334) translate(62.024691358024704 14.222222222222223)"/><use xlink:href="#z" transform="matrix(1,0,0,1,441.8796296296296,989.3323333333334) translate(112.2962962962963 14.222222222222223)"/></g><defs><path fill="#333" d="M205 0l-28-72H64L36 0H1l101-248h38L239 0h-34zm-38-99l-47-123c-12 45-31 82-46 123h93" id="A"/><path fill="#333" d="M24 0v-261h32V0H24" id="B"/><path fill="#333" d="M59-47c-2 24 18 29 38 22v24C64 9 27 4 27-40v-127H5v-23h24l9-43h21v43h35v23H59v120" id="C"/><path fill="#333" d="M100-194c63 0 86 42 84 106H49c0 40 14 67 53 68 26 1 43-12 49-29l28 8c-11 28-37 45-77 45C44 4 14-33 15-96c1-61 26-98 85-98zm52 81c6-60-76-77-97-28-3 7-6 17-6 28h103" id="D"/><path fill="#333" d="M114-163C36-179 61-72 57 0H25l-1-190h30c1 12-1 29 2 39 6-27 23-49 58-41v29" id="E"/><path fill="#333" d="M117-194c89-4 53 116 60 194h-32v-121c0-31-8-49-39-48C34-167 62-67 57 0H25l-1-190h30c1 10-1 24 2 32 11-22 29-35 61-36" id="F"/><path fill="#333" d="M141-36C126-15 110 5 73 4 37 3 15-17 15-53c-1-64 63-63 125-63 3-35-9-54-41-54-24 1-41 7-42 31l-33-3c5-37 33-52 76-52 45 0 72 20 72 64v82c-1 20 7 32 28 27v20c-31 9-61-2-59-35zM48-53c0 20 12 33 32 33 41-3 63-29 60-74-43 2-92-5-92 41" id="G"/><path fill="#333" d="M24-231v-30h32v30H24zM24 0v-190h32V0H24" id="H"/><path fill="#333" d="M108 0H70L1-190h34L89-25l56-165h34" id="I"/><g id="a"><use transform="matrix(0.06172839506172839,0,0,0.06172839506172839,0,0)" xlink:href="#A"/><use transform="matrix(0.06172839506172839,0,0,0.06172839506172839,14.814814814814813,0)" xlink:href="#B"/><use transform="matrix(0.06172839506172839,0,0,0.06172839506172839,19.691358024691354,0)" xlink:href="#C"/><use transform="matrix(0.06172839506172839,0,0,0.06172839506172839,25.864197530864192,0)" xlink:href="#D"/><use transform="matrix(0.06172839506172839,0,0,0.06172839506172839,38.20987654320987,0)" xlink:href="#E"/><use transform="matrix(0.06172839506172839,0,0,0.06172839506172839,45.55555555555555,0)" xlink:href="#F"/><use transform="matrix(0.06172839506172839,0,0,0.06172839506172839,57.90123456790123,0)" xlink:href="#G"/><use transform="matrix(0.06172839506172839,0,0,0.06172839506172839,70.24691358024691,0)" xlink:href="#C"/><use transform="matrix(0.06172839506172839,0,0,0.06172839506172839,76.41975308641975,0)" xlink:href="#H"/><use transform="matrix(0.06172839506172839,0,0,0.06172839506172839,81.29629629629629,0)" xlink:href="#I"/><use transform="matrix(0.06172839506172839,0,0,0.06172839506172839,92.4074074074074,0)" xlink:href="#D"/></g><path fill="#333" d="M212-179c-10-28-35-45-73-45-59 0-87 40-87 99 0 60 29 101 89 101 43 0 62-24 78-52l27 14C228-24 195 4 139 4 59 4 22-46 18-125c-6-104 99-153 187-111 19 9 31 26 39 46" id="J"/><path fill="#333" d="M106-169C34-169 62-67 57 0H25v-261h32l-1 103c12-21 28-36 61-36 89 0 53 116 60 194h-32v-121c2-32-8-49-39-48" id="K"/><path fill="#333" d="M177-190C167-65 218 103 67 71c-23-6-38-20-44-43l32-5c15 47 100 32 89-28v-30C133-14 115 1 83 1 29 1 15-40 15-95c0-56 16-97 71-98 29-1 48 16 59 35 1-10 0-23 2-32h30zM94-22c36 0 50-32 50-73 0-42-14-75-50-75-39 0-46 34-46 75s6 73 46 73" id="L"/><path fill="#333" d="M85-194c31 0 48 13 60 33l-1-100h32l1 261h-30c-2-10 0-23-3-31C134-8 116 4 85 4 32 4 16-35 15-94c0-66 23-100 70-100zm9 24c-40 0-46 34-46 75 0 40 6 74 45 74 42 0 51-32 51-76 0-42-9-74-50-73" id="M"/><g id="b"><use transform="matrix(0.06172839506172839,0,0,0.06172839506172839,0,0)" xlink:href="#J"/><use transform="matrix(0.06172839506172839,0,0,0.06172839506172839,15.987654320987653,0)" xlink:href="#K"/><use transform="matrix(0.06172839506172839,0,0,0.06172839506172839,28.333333333333332,0)" xlink:href="#G"/><use transform="matrix(0.06172839506172839,0,0,0.06172839506172839,40.67901234567901,0)" xlink:href="#E"/><use transform="matrix(0.06172839506172839,0,0,0.06172839506172839,48.02469135802469,0)" xlink:href="#L"/><use transform="matrix(0.06172839506172839,0,0,0.06172839506172839,60.37037037037037,0)" xlink:href="#D"/><use transform="matrix(0.06172839506172839,0,0,0.06172839506172839,72.71604938271605,0)" xlink:href="#M"/></g><path fill="#333" d="M135-143c-3-34-86-38-87 0 15 53 115 12 119 90S17 21 10-45l28-5c4 36 97 45 98 0-10-56-113-15-118-90-4-57 82-63 122-42 12 7 21 19 24 35" id="N"/><path fill="#333" d="M84 4C-5 8 30-112 23-190h32v120c0 31 7 50 39 49 72-2 45-101 50-169h31l1 190h-30c-1-10 1-25-2-33-11 22-28 36-60 37" id="O"/><path fill="#333" d="M96-169c-40 0-48 33-48 73s9 75 48 75c24 0 41-14 43-38l32 2c-6 37-31 61-74 61-59 0-76-41-82-99-10-93 101-131 147-64 4 7 5 14 7 22l-32 3c-4-21-16-35-41-35" id="P"/><path fill="#333" d="M101-234c-31-9-42 10-38 44h38v23H63V0H32v-167H5v-23h27c-7-52 17-82 69-68v24" id="Q"/><path fill="#333" d="M179-190L93 31C79 59 56 82 12 73V49c39 6 53-20 64-50L1-190h34L92-34l54-156h33" id="R"/><g id="c"><use transform="matrix(0.06172839506172839,0,0,0.06172839506172839,0,0)" xlink:href="#N"/><use transform="matrix(0.06172839506172839,0,0,0.06172839506172839,11.11111111111111,0)" xlink:href="#O"/><use transform="matrix(0.06172839506172839,0,0,0.06172839506172839,23.45679012345679,0)" xlink:href="#P"/><use transform="matrix(0.06172839506172839,0,0,0.06172839506172839,34.5679012345679,0)" xlink:href="#P"/><use transform="matrix(0.06172839506172839,0,0,0.06172839506172839,45.67901234567901,0)" xlink:href="#D"/><use transform="matrix(0.06172839506172839,0,0,0.06172839506172839,58.02469135802469,0)" xlink:href="#N"/><use transform="matrix(0.06172839506172839,0,0,0.06172839506172839,69.1358024691358,0)" xlink:href="#N"/><use transform="matrix(0.06172839506172839,0,0,0.06172839506172839,80.24691358024691,0)" xlink:href="#Q"/><use transform="matrix(0.06172839506172839,0,0,0.06172839506172839,86.41975308641975,0)" xlink:href="#O"/><use transform="matrix(0.06172839506172839,0,0,0.06172839506172839,98.76543209876543,0)" xlink:href="#B"/><use transform="matrix(0.06172839506172839,0,0,0.06172839506172839,103.64197530864197,0)" xlink:href="#B"/><use transform="matrix(0.06172839506172839,0,0,0.06172839506172839,108.51851851851852,0)" xlink:href="#R"/></g><path fill="#333" d="M26 75v-336h71v23H56V52h41v23H26" id="S"/><path fill="#333" d="M30 0v-248h187v28H63v79h144v27H63v87h162V0H30" id="T"/><path fill="#333" d="M3 75V52h41v-290H3v-23h71V75H3" id="U"/><g id="d"><use transform="matrix(0.06172839506172839,0,0,0.06172839506172839,0,0)" xlink:href="#S"/><use transform="matrix(0.06172839506172839,0,0,0.06172839506172839,6.172839506172839,0)" xlink:href="#T"/><use transform="matrix(0.06172839506172839,0,0,0.06172839506172839,20.98765432098765,0)" xlink:href="#B"/><use transform="matrix(0.06172839506172839,0,0,0.06172839506172839,25.864197530864196,0)" xlink:href="#N"/><use transform="matrix(0.06172839506172839,0,0,0.06172839506172839,36.9753086419753,0)" xlink:href="#D"/><use transform="matrix(0.06172839506172839,0,0,0.06172839506172839,49.32098765432098,0)" xlink:href="#U"/></g><path fill="#333" d="M232-93c-1 65-40 97-104 97C67 4 28-28 28-90v-158h33c8 89-33 224 67 224 102 0 64-133 71-224h33v155" id="V"/><g id="e"><use transform="matrix(0.06172839506172839,0,0,0.06172839506172839,0,0)" xlink:href="#V"/><use transform="matrix(0.06172839506172839,0,0,0.06172839506172839,15.987654320987653,0)" xlink:href="#N"/><use transform="matrix(0.06172839506172839,0,0,0.06172839506172839,27.098765432098766,0)" xlink:href="#D"/><use transform="matrix(0.06172839506172839,0,0,0.06172839506172839,39.44444444444444,0)" xlink:href="#E"/></g><path fill="#333" d="M140-251c81 0 123 46 123 126C263-46 219 4 140 4 59 4 17-45 17-125s42-126 123-126zm0 227c63 0 89-41 89-101s-29-99-89-99c-61 0-89 39-89 99S79-25 140-24" id="W"/><g id="f"><use transform="matrix(0.06172839506172839,0,0,0.06172839506172839,0,0)" xlink:href="#W"/><use transform="matrix(0.06172839506172839,0,0,0.06172839506172839,17.28395061728395,0)" xlink:href="#E"/><use transform="matrix(0.06172839506172839,0,0,0.06172839506172839,24.629629629629626,0)" xlink:href="#M"/><use transform="matrix(0.06172839506172839,0,0,0.06172839506172839,36.9753086419753,0)" xlink:href="#D"/><use transform="matrix(0.06172839506172839,0,0,0.06172839506172839,49.32098765432098,0)" xlink:href="#E"/></g><g id="g"><use transform="matrix(0.06172839506172839,0,0,0.06172839506172839,0,0)" xlink:href="#N"/><use transform="matrix(0.06172839506172839,0,0,0.06172839506172839,11.11111111111111,0)" xlink:href="#D"/><use transform="matrix(0.06172839506172839,0,0,0.06172839506172839,23.45679012345679,0)" xlink:href="#E"/><use transform="matrix(0.06172839506172839,0,0,0.06172839506172839,30.80246913580247,0)" xlink:href="#I"/><use transform="matrix(0.06172839506172839,0,0,0.06172839506172839,41.91358024691358,0)" xlink:href="#H"/><use transform="matrix(0.06172839506172839,0,0,0.06172839506172839,46.79012345679013,0)" xlink:href="#P"/><use transform="matrix(0.06172839506172839,0,0,0.06172839506172839,57.90123456790124,0)" xlink:href="#D"/></g><path fill="#333" d="M160-131c35 5 61 23 61 61C221 17 115-2 30 0v-248c76 3 177-17 177 60 0 33-19 50-47 57zm-97-11c50-1 110 9 110-42 0-47-63-36-110-37v79zm0 115c55-2 124 14 124-45 0-56-70-42-124-44v89" id="X"/><g id="h"><use transform="matrix(0.06172839506172839,0,0,0.06172839506172839,0,0)" xlink:href="#X"/><use transform="matrix(0.06172839506172839,0,0,0.06172839506172839,14.814814814814813,0)" xlink:href="#H"/><use transform="matrix(0.06172839506172839,0,0,0.06172839506172839,19.691358024691354,0)" xlink:href="#B"/><use transform="matrix(0.06172839506172839,0,0,0.06172839506172839,24.5679012345679,0)" xlink:href="#B"/><use transform="matrix(0.06172839506172839,0,0,0.06172839506172839,29.444444444444443,0)" xlink:href="#H"/><use transform="matrix(0.06172839506172839,0,0,0.06172839506172839,34.32098765432099,0)" xlink:href="#F"/><use transform="matrix(0.06172839506172839,0,0,0.06172839506172839,46.666666666666664,0)" xlink:href="#L"/></g><path fill="#333" d="M190 0L58-211 59 0H30v-248h39L202-35l-2-213h31V0h-41" id="Y"/><path fill="#333" d="M100-194c62-1 85 37 85 99 1 63-27 99-86 99S16-35 15-95c0-66 28-99 85-99zM99-20c44 1 53-31 53-75 0-43-8-75-51-75s-53 32-53 75 10 74 51 75" id="Z"/><g id="i"><use transform="matrix(0.06172839506172839,0,0,0.06172839506172839,0,0)" xlink:href="#Y"/><use transform="matrix(0.06172839506172839,0,0,0.06172839506172839,15.987654320987653,0)" xlink:href="#Z"/><use transform="matrix(0.06172839506172839,0,0,0.06172839506172839,28.333333333333332,0)" xlink:href="#C"/><use transform="matrix(0.06172839506172839,0,0,0.06172839506172839,34.50617283950617,0)" xlink:href="#H"/><use transform="matrix(0.06172839506172839,0,0,0.06172839506172839,39.382716049382715,0)" xlink:href="#Q"/><use transform="matrix(0.06172839506172839,0,0,0.06172839506172839,45.55555555555556,0)" xlink:href="#H"/><use transform="matrix(0.06172839506172839,0,0,0.06172839506172839,50.4320987654321,0)" xlink:href="#P"/><use transform="matrix(0.06172839506172839,0,0,0.06172839506172839,61.543209876543216,0)" xlink:href="#G"/><use transform="matrix(0.06172839506172839,0,0,0.06172839506172839,73.8888888888889,0)" xlink:href="#C"/><use transform="matrix(0.06172839506172839,0,0,0.06172839506172839,80.06172839506173,0)" xlink:href="#H"/><use transform="matrix(0.06172839506172839,0,0,0.06172839506172839,84.93827160493828,0)" xlink:href="#Z"/><use transform="matrix(0.06172839506172839,0,0,0.06172839506172839,97.28395061728396,0)" xlink:href="#F"/></g><path fill="#333" d="M67-125c0 53 21 87 73 88 37 1 54-22 65-47l45 17C233-25 199 4 140 4 58 4 20-42 15-125 8-235 124-281 211-232c18 10 29 29 36 50l-46 12c-8-25-30-41-62-41-52 0-71 34-72 86" id="aa"/><path fill="#333" d="M135-150c-39-12-60 13-60 57V0H25l-1-190h47c2 13-1 29 3 40 6-28 27-53 61-41v41" id="ab"/><path fill="#333" d="M185-48c-13 30-37 53-82 52C43 2 14-33 14-96s30-98 90-98c62 0 83 45 84 108H66c0 31 8 55 39 56 18 0 30-7 34-22zm-45-69c5-46-57-63-70-21-2 6-4 13-4 21h74" id="ac"/><path fill="#333" d="M133-34C117-15 103 5 69 4 32 3 11-16 11-54c-1-60 55-63 116-61 1-26-3-47-28-47-18 1-26 9-28 27l-52-2c7-38 36-58 82-57s74 22 75 68l1 82c-1 14 12 18 25 15v27c-30 8-71 5-69-32zm-48 3c29 0 43-24 42-57-32 0-66-3-65 30 0 17 8 27 23 27" id="ad"/><path fill="#333" d="M115-3C79 11 28 4 28-45v-112H4v-33h27l15-45h31v45h36v33H77v99c-1 23 16 31 38 25v30" id="ae"/><g id="j"><use transform="matrix(0.05555555555555555,0,0,0.05555555555555555,0,0)" xlink:href="#aa"/><use transform="matrix(0.05555555555555555,0,0,0.05555555555555555,14.388888888888888,0)" xlink:href="#ab"/><use transform="matrix(0.05555555555555555,0,0,0.05555555555555555,22.166666666666664,0)" xlink:href="#ac"/><use transform="matrix(0.05555555555555555,0,0,0.05555555555555555,33.27777777777777,0)" xlink:href="#ad"/><use transform="matrix(0.05555555555555555,0,0,0.05555555555555555,44.388888888888886,0)" xlink:href="#ae"/><use transform="matrix(0.05555555555555555,0,0,0.05555555555555555,51,0)" xlink:href="#ac"/></g><path fill="#333" d="M110-194c64 0 96 36 96 99 0 64-35 99-97 99-61 0-95-36-95-99 0-62 34-99 96-99zm-1 164c35 0 45-28 45-65 0-40-10-65-43-65-34 0-45 26-45 65 0 36 10 65 43 65" id="af"/><path fill="#333" d="M88-194c31-1 46 15 58 34l-1-101h50l1 261h-48c-2-10 0-23-3-31C134-8 116 4 84 4 32 4 16-41 15-95c0-56 19-97 73-99zm17 164c33 0 40-30 41-66 1-37-9-64-41-64s-38 30-39 65c0 43 13 65 39 65" id="ag"/><g id="k"><use transform="matrix(0.05555555555555555,0,0,0.05555555555555555,0,0)" xlink:href="#af"/><use transform="matrix(0.05555555555555555,0,0,0.05555555555555555,12.166666666666666,0)" xlink:href="#ab"/><use transform="matrix(0.05555555555555555,0,0,0.05555555555555555,19.944444444444443,0)" xlink:href="#ag"/><use transform="matrix(0.05555555555555555,0,0,0.05555555555555555,32.11111111111111,0)" xlink:href="#ac"/><use transform="matrix(0.05555555555555555,0,0,0.05555555555555555,43.222222222222214,0)" xlink:href="#ab"/></g><path fill="#333" d="M114-157C55-157 80-60 75 0H25v-261h50l-1 109c12-26 28-41 61-42 86-1 58 113 63 194h-50c-7-57 23-157-34-157" id="ah"/><path fill="#333" d="M195-6C206 82 75 100 31 46c-4-6-6-13-8-21l49-6c3 16 16 24 34 25 40 0 42-37 40-79-11 22-30 35-61 35-53 0-70-43-70-97 0-56 18-96 73-97 30 0 46 14 59 34l2-30h47zm-90-29c32 0 41-27 41-63 0-35-9-62-40-62-32 0-39 29-40 63 0 36 9 62 39 62" id="ai"/><g id="l"><use transform="matrix(0.04938271604938272,0,0,0.04938271604938272,0,0)" xlink:href="#aa"/><use transform="matrix(0.04938271604938272,0,0,0.04938271604938272,12.790123456790125,0)" xlink:href="#ah"/><use transform="matrix(0.04938271604938272,0,0,0.04938271604938272,23.60493827160494,0)" xlink:href="#ad"/><use transform="matrix(0.04938271604938272,0,0,0.04938271604938272,33.48148148148148,0)" xlink:href="#ab"/><use transform="matrix(0.04938271604938272,0,0,0.04938271604938272,40.39506172839506,0)" xlink:href="#ai"/><use transform="matrix(0.04938271604938272,0,0,0.04938271604938272,51.20987654320988,0)" xlink:href="#ac"/></g><path fill="#333" d="M220-157c-53 9-28 100-34 157h-49v-107c1-27-5-49-29-50C55-147 81-57 75 0H25l-1-190h47c2 12-1 28 3 38 10-53 101-56 108 0 13-22 24-43 59-42 82 1 51 116 57 194h-49v-107c-1-25-5-48-29-50" id="aj"/><path fill="#333" d="M135-194c87-1 58 113 63 194h-50c-7-57 23-157-34-157-59 0-34 97-39 157H25l-1-190h47c2 12-1 28 3 38 12-26 28-41 61-42" id="ak"/><path fill="#333" d="M123 10C108 53 80 86 19 72V37c35 8 53-11 59-39L3-190h52l48 148c12-52 28-100 44-148h51" id="al"/><g id="m"><use transform="matrix(0.04938271604938272,0,0,0.04938271604938272,0,0)" xlink:href="#aj"/><use transform="matrix(0.04938271604938272,0,0,0.04938271604938272,15.80246913580247,0)" xlink:href="#af"/><use transform="matrix(0.04938271604938272,0,0,0.04938271604938272,26.617283950617285,0)" xlink:href="#ak"/><use transform="matrix(0.04938271604938272,0,0,0.04938271604938272,37.4320987654321,0)" xlink:href="#ac"/><use transform="matrix(0.04938271604938272,0,0,0.04938271604938272,47.308641975308646,0)" xlink:href="#al"/></g><g id="n"><use transform="matrix(0.04938271604938272,0,0,0.04938271604938272,0,0)" xlink:href="#aa"/><use transform="matrix(0.04938271604938272,0,0,0.04938271604938272,12.790123456790125,0)" xlink:href="#ah"/><use transform="matrix(0.04938271604938272,0,0,0.04938271604938272,23.60493827160494,0)" xlink:href="#ad"/><use transform="matrix(0.04938271604938272,0,0,0.04938271604938272,33.48148148148148,0)" xlink:href="#ab"/><use transform="matrix(0.04938271604938272,0,0,0.04938271604938272,40.39506172839506,0)" xlink:href="#ai"/><use transform="matrix(0.04938271604938272,0,0,0.04938271604938272,51.20987654320988,0)" xlink:href="#ac"/><use transform="matrix(0.04938271604938272,0,0,0.04938271604938272,61.086419753086425,0)" xlink:href="#ag"/></g><path fill="#333" d="M137-138c1-29-70-34-71-4 15 46 118 7 119 86 1 83-164 76-172 9l43-7c4 19 20 25 44 25 33 8 57-30 24-41C81-84 22-81 20-136c-2-80 154-74 161-7" id="am"/><path fill="#333" d="M85 4C-2 5 27-109 22-190h50c7 57-23 150 33 157 60-5 35-97 40-157h50l1 190h-47c-2-12 1-28-3-38-12 25-28 42-61 42" id="an"/><path fill="#333" d="M190-63c-7 42-38 67-86 67-59 0-84-38-90-98-12-110 154-137 174-36l-49 2c-2-19-15-32-35-32-30 0-35 28-38 64-6 74 65 87 74 30" id="ao"/><path fill="#333" d="M121-226c-27-7-43 5-38 36h38v33H83V0H34v-157H6v-33h28c-9-59 32-81 87-68v32" id="ap"/><path fill="#333" d="M25 0v-261h50V0H25" id="aq"/><g id="o"><use transform="matrix(0.04938271604938272,0,0,0.04938271604938272,0,0)" xlink:href="#am"/><use transform="matrix(0.04938271604938272,0,0,0.04938271604938272,9.876543209876544,0)" xlink:href="#an"/><use transform="matrix(0.04938271604938272,0,0,0.04938271604938272,20.69135802469136,0)" xlink:href="#ao"/><use transform="matrix(0.04938271604938272,0,0,0.04938271604938272,30.567901234567906,0)" xlink:href="#ao"/><use transform="matrix(0.04938271604938272,0,0,0.04938271604938272,40.44444444444445,0)" xlink:href="#ac"/><use transform="matrix(0.04938271604938272,0,0,0.04938271604938272,50.320987654320994,0)" xlink:href="#am"/><use transform="matrix(0.04938271604938272,0,0,0.04938271604938272,60.19753086419754,0)" xlink:href="#am"/><use transform="matrix(0.04938271604938272,0,0,0.04938271604938272,70.07407407407408,0)" xlink:href="#ap"/><use transform="matrix(0.04938271604938272,0,0,0.04938271604938272,75.95061728395062,0)" xlink:href="#an"/><use transform="matrix(0.04938271604938272,0,0,0.04938271604938272,86.76543209876543,0)" xlink:href="#aq"/><use transform="matrix(0.04938271604938272,0,0,0.04938271604938272,91.7037037037037,0)" xlink:href="#aq"/><use transform="matrix(0.04938271604938272,0,0,0.04938271604938272,96.64197530864197,0)" xlink:href="#al"/></g><path fill="#333" d="M169-182c-1-43-94-46-97-3 18 66 151 10 154 114 3 95-165 93-204 36-6-8-10-19-12-30l50-8c3 46 112 56 116 5-17-69-150-10-154-114-4-87 153-88 188-35 5 8 8 18 10 28" id="ar"/><g id="p"><use transform="matrix(0.04938271604938272,0,0,0.04938271604938272,0,0)" xlink:href="#ar"/><use transform="matrix(0.04938271604938272,0,0,0.04938271604938272,11.851851851851853,0)" xlink:href="#ac"/><use transform="matrix(0.04938271604938272,0,0,0.04938271604938272,21.7283950617284,0)" xlink:href="#ak"/><use transform="matrix(0.04938271604938272,0,0,0.04938271604938272,32.543209876543216,0)" xlink:href="#ag"/></g><g id="q"><use transform="matrix(0.04938271604938272,0,0,0.04938271604938272,0,0)" xlink:href="#am"/><use transform="matrix(0.04938271604938272,0,0,0.04938271604938272,9.876543209876544,0)" xlink:href="#an"/><use transform="matrix(0.04938271604938272,0,0,0.04938271604938272,20.69135802469136,0)" xlink:href="#ao"/><use transform="matrix(0.04938271604938272,0,0,0.04938271604938272,30.567901234567906,0)" xlink:href="#ao"/><use transform="matrix(0.04938271604938272,0,0,0.04938271604938272,40.44444444444445,0)" xlink:href="#ac"/><use transform="matrix(0.04938271604938272,0,0,0.04938271604938272,50.320987654320994,0)" xlink:href="#am"/><use transform="matrix(0.04938271604938272,0,0,0.04938271604938272,60.19753086419754,0)" xlink:href="#am"/></g><path fill="#333" d="M25-224v-37h50v37H25zM25 0v-190h50V0H25" id="as"/><g id="r"><use transform="matrix(0.04938271604938272,0,0,0.04938271604938272,0,0)" xlink:href="#ak"/><use transform="matrix(0.04938271604938272,0,0,0.04938271604938272,10.814814814814815,0)" xlink:href="#af"/><use transform="matrix(0.04938271604938272,0,0,0.04938271604938272,21.62962962962963,0)" xlink:href="#ae"/><use transform="matrix(0.04938271604938272,0,0,0.04938271604938272,27.506172839506174,0)" xlink:href="#as"/><use transform="matrix(0.04938271604938272,0,0,0.04938271604938272,32.44444444444444,0)" xlink:href="#ap"/><use transform="matrix(0.04938271604938272,0,0,0.04938271604938272,38.32098765432099,0)" xlink:href="#as"/><use transform="matrix(0.04938271604938272,0,0,0.04938271604938272,43.25925925925926,0)" xlink:href="#ao"/><use transform="matrix(0.04938271604938272,0,0,0.04938271604938272,53.135802469135804,0)" xlink:href="#ad"/><use transform="matrix(0.04938271604938272,0,0,0.04938271604938272,63.01234567901235,0)" xlink:href="#ae"/><use transform="matrix(0.04938271604938272,0,0,0.04938271604938272,68.88888888888889,0)" xlink:href="#as"/><use transform="matrix(0.04938271604938272,0,0,0.04938271604938272,73.82716049382717,0)" xlink:href="#af"/><use transform="matrix(0.04938271604938272,0,0,0.04938271604938272,84.64197530864197,0)" xlink:href="#ak"/></g><path fill="#333" d="M24 0v-248h52V0H24" id="at"/><g id="s"><use transform="matrix(0.04938271604938272,0,0,0.04938271604938272,0,0)" xlink:href="#at"/><use transform="matrix(0.04938271604938272,0,0,0.04938271604938272,4.938271604938272,0)" xlink:href="#ak"/><use transform="matrix(0.04938271604938272,0,0,0.04938271604938272,15.753086419753087,0)" xlink:href="#am"/><use transform="matrix(0.04938271604938272,0,0,0.04938271604938272,25.629629629629633,0)" xlink:href="#an"/><use transform="matrix(0.04938271604938272,0,0,0.04938271604938272,36.44444444444445,0)" xlink:href="#ap"/><use transform="matrix(0.04938271604938272,0,0,0.04938271604938272,42.320987654320994,0)" xlink:href="#ap"/><use transform="matrix(0.04938271604938272,0,0,0.04938271604938272,48.19753086419754,0)" xlink:href="#as"/><use transform="matrix(0.04938271604938272,0,0,0.04938271604938272,53.135802469135804,0)" xlink:href="#ao"/><use transform="matrix(0.04938271604938272,0,0,0.04938271604938272,63.01234567901235,0)" xlink:href="#as"/><use transform="matrix(0.04938271604938272,0,0,0.04938271604938272,67.95061728395063,0)" xlink:href="#ac"/><use transform="matrix(0.04938271604938272,0,0,0.04938271604938272,77.82716049382718,0)" xlink:href="#ak"/><use transform="matrix(0.04938271604938272,0,0,0.04938271604938272,88.64197530864199,0)" xlink:href="#ae"/></g><path fill="#333" d="M135-194c52 0 70 43 70 98 0 56-19 99-73 100-30 1-46-15-58-35L72 0H24l1-261h50v104c11-23 29-37 60-37zM114-30c31 0 40-27 40-66 0-37-7-63-39-63s-41 28-41 65c0 36 8 64 40 64" id="au"/><g id="t"><use transform="matrix(0.04938271604938272,0,0,0.04938271604938272,0,0)" xlink:href="#au"/><use transform="matrix(0.04938271604938272,0,0,0.04938271604938272,10.814814814814815,0)" xlink:href="#ad"/><use transform="matrix(0.04938271604938272,0,0,0.04938271604938272,20.69135802469136,0)" xlink:href="#aq"/><use transform="matrix(0.04938271604938272,0,0,0.04938271604938272,25.629629629629633,0)" xlink:href="#ad"/><use transform="matrix(0.04938271604938272,0,0,0.04938271604938272,35.50617283950618,0)" xlink:href="#ak"/><use transform="matrix(0.04938271604938272,0,0,0.04938271604938272,46.320987654320994,0)" xlink:href="#ao"/><use transform="matrix(0.04938271604938272,0,0,0.04938271604938272,56.19753086419754,0)" xlink:href="#ac"/></g><g id="u"><use transform="matrix(0.04938271604938272,0,0,0.04938271604938272,0,0)" xlink:href="#ap"/><use transform="matrix(0.04938271604938272,0,0,0.04938271604938272,5.8765432098765435,0)" xlink:href="#ad"/><use transform="matrix(0.04938271604938272,0,0,0.04938271604938272,15.753086419753087,0)" xlink:href="#as"/><use transform="matrix(0.04938271604938272,0,0,0.04938271604938272,20.69135802469136,0)" xlink:href="#aq"/><use transform="matrix(0.04938271604938272,0,0,0.04938271604938272,25.629629629629633,0)" xlink:href="#an"/><use transform="matrix(0.04938271604938272,0,0,0.04938271604938272,36.44444444444445,0)" xlink:href="#ab"/><use transform="matrix(0.04938271604938272,0,0,0.04938271604938272,43.35802469135803,0)" xlink:href="#ac"/></g><path fill="#333" d="M175 0L67-191c6 58 2 128 3 191H24v-248h59L193-55c-6-58-2-129-3-193h46V0h-61" id="av"/><g id="v"><use transform="matrix(0.04938271604938272,0,0,0.04938271604938272,0,0)" xlink:href="#av"/><use transform="matrix(0.04938271604938272,0,0,0.04938271604938272,12.790123456790125,0)" xlink:href="#af"/><use transform="matrix(0.04938271604938272,0,0,0.04938271604938272,23.60493827160494,0)" xlink:href="#ae"/><use transform="matrix(0.04938271604938272,0,0,0.04938271604938272,29.481481481481485,0)" xlink:href="#as"/><use transform="matrix(0.04938271604938272,0,0,0.04938271604938272,34.41975308641976,0)" xlink:href="#ap"/><use transform="matrix(0.04938271604938272,0,0,0.04938271604938272,40.296296296296305,0)" xlink:href="#as"/><use transform="matrix(0.04938271604938272,0,0,0.04938271604938272,45.23456790123458,0)" xlink:href="#ao"/><use transform="matrix(0.04938271604938272,0,0,0.04938271604938272,55.111111111111114,0)" xlink:href="#ad"/><use transform="matrix(0.04938271604938272,0,0,0.04938271604938272,64.98765432098767,0)" xlink:href="#ae"/><use transform="matrix(0.04938271604938272,0,0,0.04938271604938272,70.86419753086422,0)" xlink:href="#as"/><use transform="matrix(0.04938271604938272,0,0,0.04938271604938272,75.80246913580248,0)" xlink:href="#af"/><use transform="matrix(0.04938271604938272,0,0,0.04938271604938272,86.61728395061729,0)" xlink:href="#ak"/></g><g id="w"><use transform="matrix(0.04938271604938272,0,0,0.04938271604938272,0,0)" xlink:href="#am"/><use transform="matrix(0.04938271604938272,0,0,0.04938271604938272,9.876543209876544,0)" xlink:href="#ac"/><use transform="matrix(0.04938271604938272,0,0,0.04938271604938272,19.75308641975309,0)" xlink:href="#ak"/><use transform="matrix(0.04938271604938272,0,0,0.04938271604938272,30.567901234567906,0)" xlink:href="#ae"/></g><path fill="#333" d="M240-174c0 40-23 61-54 70L253 0h-59l-57-94H76V0H24v-248c93 4 217-23 216 74zM76-134c48-2 112 12 112-38 0-48-66-32-112-35v73" id="aw"/><g id="x"><use transform="matrix(0.04938271604938272,0,0,0.04938271604938272,0,0)" xlink:href="#aw"/><use transform="matrix(0.04938271604938272,0,0,0.04938271604938272,12.790123456790125,0)" xlink:href="#ac"/><use transform="matrix(0.04938271604938272,0,0,0.04938271604938272,22.66666666666667,0)" xlink:href="#ae"/><use transform="matrix(0.04938271604938272,0,0,0.04938271604938272,28.54320987654322,0)" xlink:href="#an"/><use transform="matrix(0.04938271604938272,0,0,0.04938271604938272,39.35802469135803,0)" xlink:href="#ab"/><use transform="matrix(0.04938271604938272,0,0,0.04938271604938272,46.271604938271615,0)" xlink:href="#ak"/></g><g id="y"><use transform="matrix(0.04938271604938272,0,0,0.04938271604938272,0,0)" xlink:href="#af"/><use transform="matrix(0.04938271604938272,0,0,0.04938271604938272,10.814814814814815,0)" xlink:href="#ab"/><use transform="matrix(0.04938271604938272,0,0,0.04938271604938272,17.728395061728396,0)" xlink:href="#ag"/><use transform="matrix(0.04938271604938272,0,0,0.04938271604938272,28.543209876543205,0)" xlink:href="#ac"/><use transform="matrix(0.04938271604938272,0,0,0.04938271604938272,38.41975308641975,0)" xlink:href="#ab"/></g><g id="z"><use transform="matrix(0.04938271604938272,0,0,0.04938271604938272,0,0)" xlink:href="#as"/><use transform="matrix(0.04938271604938272,0,0,0.04938271604938272,4.938271604938272,0)" xlink:href="#ak"/><use transform="matrix(0.04938271604938272,0,0,0.04938271604938272,15.753086419753087,0)" xlink:href="#ap"/><use transform="matrix(0.04938271604938272,0,0,0.04938271604938272,21.62962962962963,0)" xlink:href="#af"/></g></defs></g></svg>